<svg id="svg" version="1.1" xmlns="http://www.w3.org/2000/svg" xmlns:xlink="http://www.w3.org/1999/xlink" width="400" height="391.84290030211474" viewBox="0, 0, 400,391.84290030211474"><g id="svgg"><path id="path0" d="M242.104 33.908 C 241.749 34.118,240.997 34.902,240.432 35.650 C 238.715 37.921,230.519 43.363,220.091 49.154 C 210.750 54.342,198.820 60.423,197.984 60.423 C 197.471 60.423,195.225 59.139,191.719 56.841 C 178.985 48.494,168.922 43.031,162.019 40.717 C 155.830 38.642,142.350 41.248,143.328 44.330 C 143.621 45.254,145.018 45.816,151.054 47.440 C 157.576 49.195,158.273 49.284,156.949 48.194 L 156.042 47.448 157.704 47.925 C 164.666 49.928,183.952 58.801,191.088 63.285 C 195.208 65.874,195.997 66.941,192.425 65.094 C 191.916 64.831,191.339 64.672,191.143 64.741 C 190.792 64.863,192.291 65.875,200.730 71.209 C 205.446 74.190,206.050 74.842,203.739 74.457 C 200.268 73.878,156.519 74.320,154.834 74.950 C 150.761 76.474,147.679 81.214,149.547 83.082 C 150.340 83.875,151.441 83.852,155.640 82.955 C 168.209 80.269,215.818 78.635,227.644 80.483 C 229.305 80.743,230.767 80.958,230.891 80.961 C 231.414 80.974,231.057 81.502,230.287 81.853 C 227.057 83.328,176.505 102.501,163.727 107.098 C 150.084 112.006,149.622 112.435,148.454 121.265 C 147.556 128.063,148.277 140.937,150.039 149.547 C 151.434 156.369,155.434 160.079,162.442 161.054 C 167.058 161.696,167.897 160.034,164.974 156.042 C 162.178 152.225,158.517 143.248,157.520 137.764 C 156.701 133.261,156.723 122.675,157.553 121.752 C 159.684 119.381,177.126 126.292,193.051 135.816 C 200.166 140.071,220.032 153.072,221.299 154.302 C 222.628 155.592,230.026 161.324,232.472 162.959 C 241.105 168.730,248.045 164.287,247.076 153.610 C 246.497 147.225,245.153 136.901,244.552 134.215 C 244.357 133.348,246.605 133.252,248.972 134.026 C 251.341 134.801,258.006 132.879,258.006 131.421 C 258.006 131.129,258.210 130.720,258.459 130.514 C 260.732 128.627,251.634 124.471,244.935 124.337 C 241.830 124.274,241.904 124.381,240.164 117.487 C 238.532 111.022,238.540 111.062,238.984 111.336 C 239.157 111.443,239.114 111.082,238.886 110.523 C 238.369 109.255,237.276 108.817,235.976 109.355 C 234.734 109.870,234.605 110.548,235.011 114.436 C 235.197 116.217,235.349 118.674,235.348 119.898 L 235.347 122.122 234.366 121.949 C 233.826 121.854,219.992 119.985,203.625 117.795 C 187.258 115.605,173.759 113.717,173.626 113.599 C 173.494 113.482,183.487 109.331,195.832 104.375 C 234.472 88.864,240.336 86.330,242.941 84.019 C 247.817 79.692,239.757 75.873,223.112 74.623 C 214.870 74.005,215.902 74.306,211.486 71.224 C 209.317 69.709,207.647 68.369,207.774 68.245 C 207.902 68.122,213.920 64.665,221.148 60.564 C 251.305 43.451,251.015 43.637,251.275 41.323 C 251.681 37.726,244.907 32.249,242.104 33.908 M194.265 121.462 C 199.995 122.299,206.072 123.109,207.770 123.262 C 209.468 123.415,211.984 123.880,213.359 124.296 C 214.735 124.712,218.784 125.666,222.356 126.416 C 229.277 127.870,234.605 129.380,235.347 130.097 C 236.985 131.679,235.145 154.985,233.382 154.985 C 233.145 154.985,230.669 153.047,227.880 150.678 C 225.091 148.309,222.198 145.874,221.450 145.268 C 219.420 143.622,197.325 129.305,196.815 129.305 C 196.573 129.305,196.375 129.524,196.375 129.791 C 196.375 130.414,196.149 130.317,192.975 128.322 C 190.475 126.751,190.365 126.638,190.953 126.246 C 191.534 125.858,191.279 125.657,187.027 123.160 C 180.389 119.262,179.936 119.368,194.265 121.462 " stroke="none" fill="#fbf9f9" fill-rule="evenodd"></path><path id="path1" d="M189.671 0.318 C 114.174 7.033,73.609 92.685,116.134 155.588 C 158.439 218.164,253.503 211.940,287.477 144.369 C 322.464 74.782,267.221 -6.580,189.671 0.318 M245.846 34.159 C 248.840 35.443,251.927 39.428,251.537 41.506 C 251.115 43.754,251.079 43.778,222.659 59.896 C 214.766 64.373,208.200 68.137,208.067 68.262 C 207.935 68.386,209.594 69.713,211.754 71.211 L 215.682 73.935 219.548 74.147 C 238.339 75.178,248.198 79.270,243.245 83.982 C 240.813 86.295,234.479 89.052,197.372 103.943 C 184.378 109.158,173.791 113.469,173.845 113.523 C 173.964 113.642,234.057 121.752,234.817 121.752 C 235.490 121.752,235.502 120.694,234.891 114.955 C 234.346 109.840,234.543 109.281,236.948 109.123 C 238.576 109.016,238.633 109.091,240.148 113.393 C 241.152 116.243,241.231 116.616,240.833 116.616 C 240.693 116.616,240.332 115.800,240.030 114.802 C 238.981 111.339,239.250 113.249,240.504 118.168 C 242.033 124.169,242.033 124.169,244.835 124.171 C 250.018 124.176,258.912 127.506,258.912 129.441 C 258.912 132.160,253.096 135.287,249.696 134.397 C 248.460 134.073,244.936 133.572,244.773 133.697 C 244.723 133.736,244.891 134.972,245.145 136.445 C 248.705 157.045,247.705 164.042,240.989 165.547 C 237.094 166.420,229.874 162.324,220.871 154.135 C 219.711 153.079,199.834 140.073,194.319 136.761 C 176.588 126.113,158.997 119.165,157.334 122.154 C 156.778 123.155,156.911 132.637,157.539 136.707 C 158.467 142.715,162.843 153.507,165.648 156.701 C 167.767 159.115,166.920 161.329,163.878 161.329 C 158.345 161.329,153.396 158.331,151.165 153.625 C 147.811 146.555,146.758 121.763,149.536 115.282 C 151.070 111.704,152.223 111.018,163.477 106.987 C 174.098 103.183,186.605 98.479,210.574 89.275 C 219.962 85.670,228.357 82.452,229.230 82.124 C 231.551 81.251,231.283 81.106,226.208 80.495 C 211.952 78.776,167.844 80.479,155.071 83.240 C 150.628 84.201,150.376 84.191,149.393 83.023 C 147.972 81.335,149.202 78.510,152.417 76.076 C 155.259 73.924,154.688 73.964,181.209 74.072 C 202.277 74.159,204.803 74.120,204.297 73.716 C 203.984 73.467,200.789 71.427,197.196 69.184 C 191.372 65.548,189.912 64.405,191.271 64.545 C 191.503 64.569,192.236 64.819,192.900 65.102 C 197.347 66.991,188.691 61.894,180.665 57.897 C 169.990 52.582,154.893 46.366,157.397 48.316 C 158.727 49.352,157.832 49.331,153.417 48.222 C 146.781 46.555,144.311 45.722,143.526 44.887 L 142.826 44.141 143.402 43.143 C 144.783 40.753,155.616 38.890,160.725 40.164 C 166.603 41.629,178.605 48.023,192.017 56.835 C 195.021 58.808,197.696 60.423,197.960 60.423 C 198.576 60.423,216.720 50.945,223.263 47.205 C 231.140 42.702,238.365 37.766,240.245 35.603 C 242.462 33.051,242.963 32.922,245.846 34.159 M182.493 120.259 C 182.734 120.413,184.946 121.728,187.410 123.182 C 191.615 125.664,191.851 125.852,191.262 126.243 C 190.666 126.639,190.767 126.744,193.263 128.311 C 195.687 129.833,195.922 129.920,196.278 129.433 C 196.791 128.732,196.063 128.313,209.189 136.858 C 219.391 143.500,221.186 144.794,226.669 149.460 C 230.030 152.320,233.008 154.666,233.287 154.672 C 233.813 154.683,233.793 154.752,234.873 149.094 C 235.756 144.466,236.072 130.830,235.314 130.076 C 234.880 129.645,227.467 127.676,221.601 126.433 C 218.112 125.694,214.169 124.748,212.840 124.332 C 211.511 123.915,209.780 123.572,208.995 123.569 C 208.209 123.567,202.431 122.828,196.155 121.926 C 182.470 119.962,181.919 119.894,182.493 120.259 " stroke="none" fill="#b41434" fill-rule="evenodd"></path><path id="path2" d="M271.299 245.330 C 266.896 246.463,262.715 247.536,262.009 247.717 C 260.069 248.213,260.225 249.082,262.365 249.705 C 267.288 251.136,267.363 251.699,267.361 287.311 C 267.358 325.608,267.046 327.808,261.280 330.116 C 260.050 330.608,259.694 331.548,260.650 331.780 C 260.940 331.851,263.985 331.789,267.415 331.642 C 271.020 331.488,276.374 331.488,280.104 331.642 C 283.652 331.789,286.794 331.851,287.085 331.780 C 288.195 331.510,287.635 330.634,285.889 329.910 C 280.848 327.821,280.211 325.789,280.211 311.782 C 280.211 298.786,280.591 297.435,284.231 297.490 C 289.072 297.563,291.496 300.471,303.194 320.242 C 306.979 326.639,310.086 331.887,310.098 331.905 C 310.111 331.922,312.118 331.815,314.558 331.667 C 317.114 331.512,321.471 331.509,324.830 331.660 C 331.361 331.954,333.530 331.567,331.402 330.487 C 324.700 327.086,321.161 323.338,313.595 311.632 C 304.368 297.353,301.247 295.105,288.742 293.729 L 286.698 293.505 296.270 286.254 C 311.968 274.363,316.802 271.532,324.451 269.753 C 328.104 268.903,328.142 268.888,328.034 268.328 C 327.884 267.549,301.511 267.554,301.511 268.333 C 301.511 268.613,301.779 268.927,302.108 269.031 C 303.182 269.372,304.532 271.327,304.532 272.542 C 304.532 274.706,303.214 276.047,291.390 285.918 L 280.211 295.251 280.134 269.227 C 280.073 248.690,279.978 243.210,279.681 243.237 C 279.474 243.256,275.702 244.198,271.299 245.330 M236.607 246.104 C 232.279 248.260,231.214 254.193,234.532 257.655 C 239.165 262.489,247.130 259.389,247.130 252.752 C 247.130 247.017,241.682 243.575,236.607 246.104 M103.765 266.499 C 84.290 268.548,70.833 284.402,72.781 303.003 C 74.723 321.545,88.583 333.124,108.761 333.062 C 124.677 333.014,135.397 325.208,140.361 310.054 C 141.644 306.138,141.668 306.344,139.934 306.344 L 138.479 306.344 137.938 308.062 C 130.327 332.204,100.729 338.030,90.638 317.372 C 87.742 311.443,86.340 301.656,87.203 293.398 L 87.397 291.541 113.638 291.541 C 131.638 291.541,139.879 291.442,139.879 291.226 C 139.879 291.053,139.664 289.872,139.402 288.601 C 136.366 273.905,121.428 264.640,103.765 266.499 M185.818 266.481 C 175.463 267.778,169.652 272.759,165.920 283.535 C 165.688 284.205,165.600 282.261,165.583 276.057 C 165.570 271.446,165.511 267.674,165.452 267.674 C 165.394 267.674,163.728 268.098,161.751 268.617 C 159.775 269.136,155.856 269.989,153.044 270.513 C 147.277 271.586,146.964 271.808,149.451 273.064 C 154.032 275.379,154.147 276.131,154.013 303.021 C 153.914 322.827,153.903 323.140,153.243 325.101 C 152.222 328.138,150.480 329.614,147.054 330.347 C 146.107 330.550,145.891 331.571,146.752 331.780 C 147.043 331.850,150.235 331.790,153.845 331.646 C 157.491 331.500,163.199 331.498,166.685 331.640 C 173.621 331.923,174.018 331.894,174.018 331.103 C 174.018 330.547,173.767 330.419,171.945 330.052 C 167.809 329.217,166.775 325.049,166.779 309.215 C 166.783 288.806,168.690 280.315,174.626 274.285 C 182.291 266.499,195.242 268.636,200.424 278.543 C 203.315 284.071,203.624 286.611,203.614 304.834 C 203.603 326.013,202.986 328.901,198.186 330.212 C 197.439 330.416,196.658 330.631,196.450 330.690 C 196.242 330.749,196.073 330.990,196.073 331.227 C 196.073 331.927,196.523 331.953,203.491 331.651 C 207.660 331.470,212.286 331.466,215.848 331.642 C 223.537 332.022,224.497 331.790,221.227 330.343 C 216.530 328.266,216.585 328.550,216.329 304.985 C 216.098 283.720,216.142 284.127,213.466 278.689 C 209.033 269.683,198.254 264.923,185.818 266.481 M357.913 266.462 C 350.192 267.068,339.763 269.988,336.943 272.333 C 336.831 272.426,340.416 284.626,340.612 284.822 C 340.918 285.127,341.273 284.553,342.390 281.948 C 346.172 273.128,351.815 269.413,362.085 268.984 C 374.610 268.460,380.909 274.730,381.484 288.293 L 381.661 292.447 376.253 292.450 C 346.619 292.466,332.050 300.318,333.838 315.308 C 335.138 326.213,343.714 332.641,357.634 333.146 C 369.493 333.577,375.672 330.285,381.401 320.487 L 381.986 319.486 382.220 321.450 C 382.528 324.039,383.268 327.215,384.085 329.456 L 384.746 331.269 392.272 331.269 C 400.198 331.269,401.305 331.066,398.888 330.058 C 397.293 329.393,395.939 327.998,395.111 326.169 L 394.411 324.622 394.260 303.474 L 394.109 282.326 393.288 280.077 C 389.547 269.829,376.925 264.971,357.913 266.462 M244.260 268.298 C 240.689 269.260,233.212 270.960,230.684 271.384 C 228.003 271.834,227.508 272.285,229.218 272.719 C 231.172 273.215,232.791 274.449,233.574 276.038 L 234.290 277.492 234.380 298.489 C 234.501 326.775,234.272 328.028,228.656 329.922 C 227.528 330.303,227.012 330.645,226.948 331.056 C 226.813 331.924,227.312 331.964,234.460 331.652 C 238.433 331.479,243.403 331.477,247.286 331.646 C 254.301 331.952,254.757 331.915,254.623 331.056 C 254.560 330.652,254.059 330.308,253.021 329.958 C 247.286 328.021,247.152 327.151,247.139 291.767 C 247.132 272.684,247.051 267.679,246.752 267.701 C 246.545 267.716,245.423 267.985,244.260 268.298 M5.982 275.306 C 2.131 286.036,2.143 286.105,7.006 281.200 C 13.729 274.419,18.844 272.296,30.211 271.567 C 41.232 270.860,45.308 271.700,43.923 274.393 C 43.298 275.607,44.733 273.741,20.294 305.136 L -0.049 331.269 29.944 331.346 C 46.440 331.388,60.035 331.320,60.155 331.195 C 60.275 331.069,61.478 327.908,62.829 324.169 C 66.241 314.727,66.210 313.584,62.633 317.084 C 54.519 325.024,43.836 328.371,27.629 328.048 C 19.959 327.895,19.499 327.381,22.890 322.750 C 24.009 321.221,33.387 308.488,43.731 294.453 C 54.074 280.418,62.619 268.719,62.721 268.455 C 62.888 268.020,60.424 267.976,35.757 267.979 L 8.610 267.983 5.982 275.306 M112.085 269.648 C 119.098 271.758,123.406 277.756,124.066 286.329 L 124.258 288.822 106.087 288.822 C 90.891 288.822,87.915 288.754,87.915 288.407 C 87.915 288.179,88.254 286.660,88.667 285.030 C 91.789 272.721,101.373 266.426,112.085 269.648 M381.478 302.039 C 381.245 311.197,380.368 315.510,377.682 320.695 C 369.549 336.396,347.048 330.872,348.142 313.442 C 348.926 300.934,357.392 295.320,375.645 295.204 L 381.653 295.166 381.478 302.039 M75.311 364.661 C 74.649 364.925,74.110 366.189,74.285 367.069 C 74.576 368.535,76.551 369.068,77.644 367.976 C 79.216 366.403,77.404 363.828,75.311 364.661 M212.991 375.529 L 212.991 386.707 214.502 386.707 L 216.012 386.707 216.012 375.529 L 216.012 364.350 214.502 364.350 L 212.991 364.350 212.991 375.529 M316.942 364.735 C 316.540 364.939,316.082 365.494,315.925 365.968 C 315.289 367.884,317.926 369.419,319.308 367.936 C 320.852 366.278,318.957 363.713,316.942 364.735 M118.379 365.181 C 117.781 365.891,116.012 368.733,116.012 368.984 C 116.012 369.094,116.527 369.184,117.155 369.184 C 118.289 369.184,119.519 368.182,121.886 365.332 L 122.450 364.653 120.637 364.653 C 119.282 364.653,118.712 364.786,118.379 365.181 M23.486 372.754 C 16.076 376.579,16.072 376.194,23.565 380.115 C 30.104 383.538,29.975 383.503,29.851 381.798 L 29.758 380.514 25.907 378.550 C 23.789 377.470,22.056 376.518,22.056 376.435 C 22.056 376.352,23.789 375.400,25.907 374.320 L 29.758 372.356 29.851 371.073 C 29.974 369.369,30.117 369.331,23.486 372.754 M365.559 370.715 C 365.559 372.235,365.944 372.578,369.761 374.461 C 371.770 375.453,373.414 376.341,373.414 376.435 C 373.414 376.529,371.770 377.417,369.761 378.409 C 365.944 380.292,365.559 380.635,365.559 382.155 C 365.559 383.401,365.263 383.495,371.821 380.152 C 379.498 376.239,379.493 376.640,371.914 372.734 C 365.485 369.421,365.559 369.445,365.559 370.715 M40.030 371.697 C 37.884 372.727,37.335 373.400,37.939 374.262 C 38.539 375.119,39.212 375.098,40.830 374.173 C 43.602 372.588,45.876 373.530,46.150 376.377 L 46.300 377.946 44.815 377.946 C 40.302 377.946,36.858 380.035,36.858 382.774 C 36.858 386.724,41.508 388.317,45.377 385.692 L 46.426 384.980 46.752 385.844 C 47.028 386.577,47.244 386.707,48.184 386.707 L 49.290 386.707 49.192 380.740 C 49.083 374.103,48.844 373.125,47.017 371.822 C 45.564 370.786,42.059 370.723,40.030 371.697 M60.099 371.594 C 59.506 371.908,58.826 372.399,58.589 372.685 C 58.192 373.164,58.145 373.136,58.005 372.328 C 57.868 371.540,57.721 371.441,56.570 371.357 L 55.287 371.264 55.287 378.986 L 55.287 386.707 56.798 386.707 L 58.308 386.707 58.308 381.014 C 58.308 374.747,58.248 374.959,60.332 373.904 C 61.747 373.187,63.253 373.279,64.258 374.142 L 65.106 374.871 65.199 380.789 L 65.293 386.707 66.808 386.707 L 68.322 386.707 68.225 380.589 C 68.116 373.759,67.932 373.064,65.876 371.678 C 64.562 370.793,61.693 370.751,60.099 371.594 M89.275 371.350 C 88.943 371.533,88.372 371.954,88.006 372.285 L 87.342 372.886 87.143 372.093 C 86.970 371.406,86.785 371.299,85.768 371.299 L 84.592 371.299 84.592 379.003 L 84.592 386.707 86.096 386.707 L 87.601 386.707 87.682 380.752 L 87.764 374.797 88.791 374.105 C 89.907 373.354,91.412 373.218,92.171 373.801 C 93.219 374.605,93.353 375.437,93.353 381.098 L 93.353 386.707 94.864 386.707 L 96.375 386.707 96.375 381.405 C 96.375 375.742,96.559 374.860,97.951 373.885 C 98.950 373.186,100.433 373.296,101.418 374.142 L 102.266 374.871 102.359 380.789 L 102.453 386.707 103.968 386.707 L 105.483 386.707 105.385 380.589 C 105.297 375.065,105.227 374.369,104.666 373.415 C 102.895 370.400,98.274 370.068,95.983 372.792 C 95.501 373.364,95.166 373.580,95.166 373.317 C 95.166 371.668,91.134 370.322,89.275 371.350 M114.163 371.841 C 109.121 374.475,109.272 383.638,114.399 386.129 C 117.979 387.868,124.836 386.060,123.578 383.709 C 123.150 382.911,122.582 382.919,120.877 383.744 C 117.440 385.408,114.454 384.036,113.642 380.420 L 113.360 379.168 118.689 379.085 L 124.018 379.003 124.118 377.795 C 124.551 372.527,119.096 369.264,114.163 371.841 M131.571 371.423 C 127.109 373.407,128.041 378.180,133.227 379.907 C 136.724 381.072,137.516 382.168,135.975 383.709 C 134.891 384.793,133.200 384.896,131.420 383.988 C 129.342 382.928,127.337 384.219,129.023 385.532 C 132.046 387.887,137.655 387.135,138.989 384.197 C 140.504 380.859,139.342 378.989,134.836 377.515 C 132.996 376.913,131.718 375.994,131.732 375.280 C 131.762 373.697,133.950 372.825,136.002 373.578 C 136.722 373.842,137.520 374.125,137.776 374.208 C 138.358 374.395,139.405 373.282,139.185 372.709 C 138.645 371.301,133.718 370.469,131.571 371.423 M158.459 371.472 C 157.961 371.731,157.248 372.229,156.876 372.578 L 156.198 373.212 156.007 372.256 C 155.832 371.379,155.718 371.299,154.645 371.299 L 153.474 371.299 153.474 381.571 L 153.474 391.843 154.834 391.843 L 156.193 391.843 156.193 388.681 L 156.193 385.519 157.175 386.084 C 162.776 389.309,168.332 383.519,166.786 376.070 C 165.912 371.863,161.933 369.665,158.459 371.472 M175.076 371.486 C 172.867 372.291,172.008 373.219,172.615 374.145 C 173.250 375.114,173.623 375.117,175.407 374.169 C 177.966 372.808,180.057 373.324,180.651 375.462 C 181.277 377.717,181.161 377.945,179.381 377.949 C 174.650 377.960,171.601 379.919,171.601 382.948 C 171.601 386.711,176.018 388.237,179.859 385.802 L 181.204 384.949 181.380 385.828 C 181.535 386.602,181.685 386.707,182.638 386.707 L 183.720 386.707 183.627 380.384 C 183.525 373.362,183.474 373.175,181.272 371.677 C 180.077 370.864,177.037 370.770,175.076 371.486 M194.822 371.528 C 194.383 371.817,193.742 372.394,193.397 372.810 C 192.783 373.549,192.769 373.551,192.759 372.910 C 192.740 371.620,192.430 371.299,191.206 371.299 L 190.030 371.299 190.030 379.003 L 190.030 386.707 191.541 386.707 L 193.051 386.707 193.052 381.647 C 193.054 374.906,193.637 373.854,197.325 373.945 C 199.142 373.990,199.380 373.767,199.392 372.011 C 199.399 370.874,196.307 370.546,194.822 371.528 M225.645 371.414 C 223.198 372.288,222.285 373.349,223.079 374.396 C 223.620 375.108,224.180 375.063,225.860 374.169 C 228.333 372.854,231.118 373.577,231.118 375.535 C 231.118 375.822,231.199 376.462,231.298 376.956 L 231.477 377.855 229.088 378.019 C 223.074 378.431,219.878 382.476,223.054 385.653 C 224.686 387.285,229.157 387.285,230.511 385.653 C 231.074 384.974,231.632 385.099,231.846 385.952 C 232.004 386.579,232.216 386.707,233.104 386.707 L 234.173 386.707 234.080 380.384 C 233.978 373.362,233.927 373.175,231.725 371.677 C 230.560 370.884,227.499 370.751,225.645 371.414 M253.625 371.499 C 253.127 371.762,252.431 372.239,252.080 372.559 C 251.443 373.139,251.440 373.138,251.257 372.220 C 251.088 371.377,250.970 371.299,249.856 371.299 L 248.640 371.299 248.640 381.571 L 248.640 391.843 250.151 391.843 L 251.662 391.843 251.662 388.822 C 251.662 387.160,251.734 385.801,251.823 385.801 C 251.912 385.801,252.286 385.991,252.654 386.225 C 255.837 388.242,260.634 386.021,261.806 381.987 C 263.855 374.939,258.973 368.680,253.625 371.499 M270.544 371.361 C 269.816 371.616,268.706 372.304,267.406 373.305 C 267.146 373.506,268.325 374.924,268.752 374.924 C 269.005 374.924,269.850 374.585,270.631 374.169 C 273.705 372.532,276.133 373.775,276.133 376.986 C 276.133 377.853,276.120 377.859,273.915 378.026 C 269.368 378.370,266.767 380.155,266.767 382.931 C 266.767 386.636,271.161 388.198,274.955 385.840 L 276.372 384.958 276.547 385.833 C 276.706 386.628,276.835 386.707,277.970 386.707 L 279.217 386.707 279.106 380.740 C 278.980 373.950,278.670 372.894,276.434 371.637 C 275.170 370.927,272.187 370.787,270.544 371.361 M286.711 371.684 C 284.463 372.873,283.639 375.514,284.879 377.549 C 285.568 378.678,286.061 378.970,288.911 379.940 C 291.357 380.772,292.145 381.368,292.145 382.387 C 292.145 384.358,288.900 385.340,286.858 383.988 C 285.440 383.048,283.595 383.736,284.088 385.020 C 284.994 387.381,291.717 387.470,293.855 385.150 C 296.493 382.286,295.025 379.055,290.384 377.510 C 287.667 376.605,287.225 376.240,287.365 375.018 C 287.574 373.198,289.608 372.836,292.700 374.069 C 293.639 374.444,293.748 374.423,294.286 373.758 C 295.983 371.664,289.899 369.998,286.711 371.684 M302.243 371.607 C 299.985 372.724,299.060 375.536,300.287 377.549 C 300.976 378.678,301.468 378.970,304.318 379.940 C 306.831 380.794,307.553 381.366,307.553 382.502 C 307.553 384.397,304.646 385.225,302.338 383.988 C 300.870 383.201,300.419 383.226,299.830 384.126 C 297.973 386.959,306.242 387.957,309.144 385.249 C 312.042 382.546,310.650 379.261,305.875 377.539 C 303.013 376.507,302.520 376.062,302.836 374.800 C 303.207 373.323,304.819 372.923,307.222 373.712 L 309.205 374.363 309.738 373.704 C 311.344 371.721,305.382 370.053,302.243 371.607 M329.305 371.479 C 322.877 374.263,323.913 385.305,330.736 386.722 C 336.284 387.874,340.392 383.838,339.766 377.849 C 339.205 372.489,334.121 369.393,329.305 371.479 M350.453 371.379 C 350.038 371.605,349.340 372.024,348.903 372.311 C 348.121 372.824,348.104 372.820,347.915 372.066 C 347.749 371.406,347.556 371.299,346.520 371.299 L 345.317 371.299 345.317 379.003 L 345.317 386.707 346.828 386.707 L 348.338 386.707 348.338 380.982 L 348.338 375.257 349.398 374.449 C 350.742 373.424,352.849 373.133,353.907 373.826 C 355.019 374.554,355.283 376.056,355.285 381.647 L 355.287 386.707 356.825 386.707 L 358.363 386.707 358.260 380.740 C 358.147 374.190,357.888 373.123,356.087 371.779 C 355.050 371.004,351.592 370.759,350.453 371.379 M74.622 379.003 L 74.622 386.707 76.133 386.707 L 77.644 386.707 77.644 379.003 L 77.644 371.299 76.133 371.299 L 74.622 371.299 74.622 379.003 M316.314 379.003 L 316.314 386.707 317.825 386.707 L 319.335 386.707 319.335 379.003 L 319.335 371.299 317.825 371.299 L 316.314 371.299 316.314 379.003 M119.187 373.547 C 120.250 373.991,121.447 375.559,121.449 376.511 C 121.450 376.987,121.061 377.039,117.502 377.039 L 113.554 377.039 113.751 376.360 C 114.468 373.876,116.929 372.603,119.187 373.547 M162.723 374.422 C 166.668 379.008,161.569 387.249,157.109 383.496 L 156.193 382.726 156.193 379.184 C 156.193 375.369,156.361 374.967,158.459 373.748 C 159.508 373.139,161.951 373.525,162.723 374.422 M257.703 374.273 C 261.837 378.407,257.200 387.184,252.666 383.805 C 251.554 382.976,251.165 375.770,252.183 374.849 C 254.015 373.190,256.374 372.944,257.703 374.273 M334.686 374.026 C 336.052 374.859,336.663 376.413,336.658 379.042 C 336.645 386.099,328.734 386.609,328.170 379.589 C 327.786 374.805,331.193 371.896,334.686 374.026 M46.224 381.216 C 46.224 383.928,42.072 385.910,40.358 384.016 C 38.915 382.421,40.367 380.625,43.523 380.102 C 46.342 379.634,46.224 379.585,46.224 381.216 M180.967 381.254 C 180.967 383.917,176.714 385.839,174.968 383.965 C 173.432 382.317,174.970 380.559,178.387 380.057 C 181.105 379.658,180.967 379.594,180.967 381.254 M231.420 381.254 C 231.420 383.917,227.167 385.839,225.421 383.965 C 223.837 382.264,225.289 380.613,228.852 380.066 C 231.547 379.652,231.420 379.593,231.420 381.254 M276.133 381.242 C 276.133 384.182,271.716 385.938,270.030 383.669 C 268.861 382.097,270.278 380.628,273.475 380.095 C 276.248 379.634,276.133 379.584,276.133 381.242 " stroke="none" fill="#040404" fill-rule="evenodd"></path><path id="path3" d="M155.217 39.796 C 155.760 39.863,156.576 39.862,157.030 39.793 C 157.484 39.724,157.039 39.669,156.042 39.671 C 155.045 39.672,154.674 39.729,155.217 39.796 M195.398 79.977 C 195.941 80.044,196.757 80.043,197.211 79.974 C 197.665 79.905,197.221 79.850,196.224 79.852 C 195.227 79.854,194.855 79.910,195.398 79.977 M215.483 79.975 C 215.940 80.044,216.688 80.044,217.145 79.975 C 217.602 79.905,217.228 79.849,216.314 79.849 C 215.400 79.849,215.026 79.905,215.483 79.975 M147.816 127.190 C 147.816 127.938,147.875 128.244,147.947 127.870 C 148.019 127.496,148.019 126.884,147.947 126.511 C 147.875 126.137,147.816 126.443,147.816 127.190 M147.821 131.571 C 147.823 132.402,147.881 132.706,147.951 132.247 C 148.020 131.787,148.019 131.108,147.947 130.736 C 147.875 130.364,147.818 130.740,147.821 131.571 M245.695 133.743 C 245.986 133.819,246.461 133.819,246.752 133.743 C 247.043 133.667,246.805 133.605,246.224 133.605 C 245.642 133.605,245.404 133.667,245.695 133.743 " stroke="none" fill="#c45259" fill-rule="evenodd"></path><path id="path4" d="M165.332 74.244 C 169.777 74.292,177.051 74.292,181.495 74.244 C 185.940 74.197,182.304 74.159,173.414 74.159 C 164.524 74.159,160.887 74.197,165.332 74.244 M198.569 74.235 C 199.028 74.304,199.708 74.303,200.080 74.231 C 200.451 74.159,200.076 74.102,199.245 74.105 C 198.414 74.107,198.110 74.165,198.569 74.235 M217.296 74.226 C 217.587 74.302,218.063 74.302,218.353 74.226 C 218.644 74.150,218.406 74.088,217.825 74.088 C 217.243 74.088,217.005 74.150,217.296 74.226 M192.527 79.975 C 192.986 80.045,193.666 80.043,194.037 79.971 C 194.409 79.899,194.033 79.842,193.202 79.845 C 192.372 79.847,192.068 79.906,192.527 79.975 M218.509 79.975 C 218.968 80.045,219.648 80.043,220.019 79.971 C 220.391 79.899,220.015 79.842,219.184 79.845 C 218.353 79.847,218.049 79.906,218.509 79.975 M184.668 80.269 C 184.958 80.345,185.434 80.345,185.725 80.269 C 186.016 80.193,185.778 80.131,185.196 80.131 C 184.615 80.131,184.377 80.193,184.668 80.269 M151.492 112.462 L 150.604 113.444 151.586 112.557 C 152.501 111.730,152.707 111.480,152.473 111.480 C 152.421 111.480,151.980 111.922,151.492 112.462 M208.233 123.471 C 208.523 123.547,208.999 123.547,209.290 123.471 C 209.581 123.395,209.343 123.333,208.761 123.333 C 208.180 123.333,207.942 123.395,208.233 123.471 M147.804 129.305 C 147.804 129.887,147.866 130.125,147.942 129.834 C 148.018 129.543,148.018 129.067,147.942 128.776 C 147.866 128.486,147.804 128.724,147.804 129.305 M235.726 131.873 C 235.729 132.538,235.791 132.774,235.863 132.398 C 235.935 132.022,235.933 131.479,235.857 131.190 C 235.782 130.901,235.722 131.208,235.726 131.873 " stroke="none" fill="#d4847c" fill-rule="evenodd"></path></g></svg>